<svg height="345.60001pt" stroke-linejoin="round" viewBox="0 0 345.60001 345.60001" width="345.60001pt" xmlns="http://www.w3.org/2000/svg" xmlns:xlink="http://www.w3.org/1999/xlink"><defs stroke-linejoin="round"><clipPath id="a" stroke-linejoin="round"><path d="m52.34 26.879999h363.16v363.16h-363.16z"/></clipPath><path id="b" d="m0 2.236068c.593012 0 1.161816-.235606 1.581139-.654929s.654929-.988127.654929-1.581139-.235606-1.161816-.654929-1.581139-.988127-.654929-1.581139-.654929-1.161816.235606-1.581139.654929-.654929.988127-.654929 1.581139.235606 1.161816.654929 1.581139.988127.654929 1.581139.654929z" stroke-linejoin="round"/><path id="c" d="m0 0v3.5" stroke="#000" stroke-linejoin="round" stroke-width=".8"/><path id="d" d="m31.78125 66.40625q-7.609375 0-11.453125-7.5-3.828125-7.484375-3.828125-22.53125 0-14.984375 3.828125-22.484375 3.84375-7.5 11.453125-7.5 7.671875 0 11.5 7.5 3.84375 7.5 3.84375 22.484375 0 15.046875-3.84375 22.53125-3.828125 7.5-11.5 7.5zm0 7.8125q12.265625 0 18.734375-9.703125 6.46875-9.6875 6.46875-28.140625 0-18.40625-6.46875-28.109375-6.46875-9.6875-18.734375-9.6875-12.25 0-18.71875 9.6875-6.46875 9.703125-6.46875 28.109375 0 18.453125 6.46875 28.140625 6.46875 9.703125 18.71875 9.703125z" stroke-linejoin="round"/><path id="e" d="m10.6875 12.40625h10.3125v-12.40625h-10.3125z" stroke-linejoin="round"/><path id="f" d="m19.1875 8.296875h34.421875v-8.296875h-46.28125v8.296875q5.609375 5.8125 15.296875 15.59375 9.703125 9.796875 12.1875 12.640625 4.734375 5.3125 6.609375 9 1.890625 3.6875 1.890625 7.25 0 5.8125-4.078125 9.46875-4.078125 3.671875-10.625 3.671875-4.640625 0-9.796875-1.609375-5.140625-1.609375-11-4.890625v9.96875q5.953125 2.390625 11.125 3.609375 5.1875 1.21875 9.484375 1.21875 11.328125 0 18.0625-5.671875 6.734375-5.65625 6.734375-15.125 0-4.5-1.6875-8.53125-1.671875-4.015625-6.125-9.484375-1.21875-1.421875-7.765625-8.1875-6.53125-6.765625-18.453125-18.921875z" stroke-linejoin="round"/><path id="g" d="m37.796875 64.3125-24.90625-38.921875h24.90625zm-2.59375 8.59375h12.40625v-47.515625h10.40625v-8.203125h-10.40625v-17.1875h-9.8125v17.1875h-32.90625v9.515625z" stroke-linejoin="round"/><path id="h" d="m33.015625 40.375q-6.640625 0-10.53125-4.546875-3.875-4.53125-3.875-12.4375 0-7.859375 3.875-12.4375 3.890625-4.5625 10.53125-4.5625 6.640625 0 10.515625 4.5625 3.875 4.578125 3.875 12.4375 0 7.90625-3.875 12.4375-3.875 4.546875-10.515625 4.546875zm19.578125 30.921875v-8.984375q-3.71875 1.75-7.5 2.671875-3.78125.9375-7.5.9375-9.765625 0-14.921875-6.59375-5.140625-6.59375-5.875-19.921875 2.875 4.25 7.21875 6.515625 4.359375 2.265625 9.578125 2.265625 10.984375 0 17.359375-6.671875 6.375-6.65625 6.375-18.125 0-11.234375-6.640625-18.03125-6.640625-6.78125-17.671875-6.78125-12.65625 0-19.34375 9.6875-6.6875 9.703125-6.6875 28.109375 0 17.28125 8.203125 27.5625 8.203125 10.28125 22.015625 10.28125 3.71875 0 7.5-.734375 3.78125-.734375 7.890625-2.1875z" stroke-linejoin="round"/><path id="i" d="m31.78125 34.625q-7.03125 0-11.0625-3.765625-4.015625-3.765625-4.015625-10.34375 0-6.59375 4.015625-10.359375 4.03125-3.765625 11.0625-3.765625 7.03125 0 11.078125 3.78125 4.0625 3.796875 4.0625 10.34375 0 6.578125-4.03125 10.34375-4.015625 3.765625-11.109375 3.765625zm-9.859375 4.1875q-6.34375 1.5625-9.890625 5.90625-3.53125 4.359375-3.53125 10.609375 0 8.734375 6.21875 13.8125 6.234375 5.078125 17.0625 5.078125 10.890625 0 17.09375-5.078125 6.203125-5.078125 6.203125-13.8125 0-6.25-3.546875-10.609375-3.53125-4.34375-9.828125-5.90625 7.125-1.65625 11.09375-6.5 3.984375-4.828125 3.984375-11.796875 0-10.609375-6.46875-16.28125-6.46875-5.65625-18.53125-5.65625-12.046875 0-18.53125 5.65625-6.46875 5.671875-6.46875 16.28125 0 6.96875 4 11.796875 4.015625 4.84375 11.140625 6.5zm-3.609375 15.578125q0-5.65625 3.53125-8.828125 3.546875-3.171875 9.9375-3.171875 6.359375 0 9.9375 3.171875 3.59375 3.171875 3.59375 8.828125 0 5.671875-3.59375 8.84375-3.578125 3.171875-9.9375 3.171875-6.390625 0-9.9375-3.171875-3.53125-3.171875-3.53125-8.84375z" stroke-linejoin="round"/><path id="j" d="m9.421875 54.6875h8.984375v-54.6875h-8.984375zm0 21.296875h8.984375v-11.390625h-8.984375z" stroke-linejoin="round"/><path id="k" d="m41.109375 46.296875q-1.515625.875-3.296875 1.28125-1.78125.421875-3.921875.421875-7.625 0-11.703125-4.953125-4.078125-4.953125-4.078125-14.234375v-28.8125h-9.03125v54.6875h9.03125v-8.5q2.84375 4.984375 7.375 7.390625 4.546875 2.421875 11.046875 2.421875.921875 0 2.046875-.125 1.125-.109375 2.484375-.359375z" stroke-linejoin="round"/><path id="l" d="m18.3125 70.21875v-15.53125h18.5v-6.984375h-18.5v-29.6875q0-6.6875 1.828125-8.59375 1.828125-1.90625 7.453125-1.90625h9.21875v-7.515625h-9.21875q-10.40625 0-14.359375 3.875-3.953125 3.890625-3.953125 14.140625v29.6875h-6.59375v6.984375h6.59375v15.53125z" stroke-linejoin="round"/><path id="m" d="m54.890625 33.015625v-33.015625h-8.984375v32.71875q0 7.765625-3.03125 11.609375-3.03125 3.859375-9.078125 3.859375-7.28125 0-11.484375-4.640625-4.203125-4.625-4.203125-12.640625v-30.90625h-9.03125v75.984375h9.03125v-29.796875q3.234375 4.9375 7.59375 7.375 4.375 2.4375 10.09375 2.4375 9.421875 0 14.25-5.828125 4.84375-5.828125 4.84375-17.15625z" stroke-linejoin="round"/><path id="n" d="m0 0h-3.5" stroke="#000" stroke-linejoin="round" stroke-width=".8"/><path id="o" d="m19.671875 64.796875v-56.6875h11.921875q15.09375 0 22.09375 6.828125 7 6.84375 7 21.59375 0 14.640625-7 21.453125-7 6.8125-22.09375 6.8125zm-9.859375 8.109375h20.265625q21.1875 0 31.09375-8.8125 9.921875-8.8125 9.921875-27.5625 0-18.859375-9.96875-27.703125-9.953125-8.828125-31.046875-8.828125h-20.265625z" stroke-linejoin="round"/><path id="p" d="m56.203125 29.59375v-4.390625h-41.3125q.59375-9.28125 5.59375-14.140625 5-4.859375 13.9375-4.859375 5.171875 0 10.03125 1.265625 4.859375 1.265625 9.65625 3.8125v-8.5q-4.84375-2.046875-9.921875-3.125-5.078125-1.078125-10.296875-1.078125-13.09375 0-20.734375 7.609375-7.640625 7.625-7.640625 20.625 0 13.421875 7.25 21.296875 7.25 7.890625 19.5625 7.890625 11.03125 0 17.453125-7.109375 6.421875-7.09375 6.421875-19.296875zm-8.984375 2.640625q-.09375 7.359375-4.125 11.75-4.03125 4.40625-10.671875 4.40625-7.515625 0-12.03125-4.25-4.515625-4.25-5.203125-11.96875z" stroke-linejoin="round"/><path id="q" d="m34.28125 27.484375q-10.890625 0-15.09375-2.484375-4.203125-2.484375-4.203125-8.5 0-4.78125 3.15625-7.59375 3.15625-2.796875 8.5625-2.796875 7.484375 0 12 5.296875 4.515625 5.296875 4.515625 14.078125v2zm17.921875 3.71875v-31.203125h-8.984375v8.296875q-3.078125-4.96875-7.671875-7.34375-4.59375-2.375-11.234375-2.375-8.390625 0-13.359375 4.71875-4.953125 4.71875-4.953125 12.625 0 9.21875 6.171875 13.90625 6.1875 4.6875 18.4375 4.6875h12.609375v.890625q0 6.203125-4.078125 9.59375-4.078125 3.390625-11.453125 3.390625-4.6875 0-9.140625-1.125-4.4375-1.125-8.53125-3.375v8.3125q4.921875 1.90625 9.5625 2.84375 4.640625.953125 9.03125.953125 11.875 0 17.734375-6.15625 5.859375-6.140625 5.859375-18.640625z" stroke-linejoin="round"/><path id="r" d="m44.28125 53.078125v-8.5q-3.796875 1.953125-7.90625 2.921875-4.09375.984375-8.5.984375-6.6875 0-10.03125-2.046875-3.34375-2.046875-3.34375-6.15625 0-3.125 2.390625-4.90625 2.390625-1.78125 9.625-3.390625l3.078125-.6875q9.5625-2.046875 13.59375-5.78125 4.03125-3.734375 4.03125-10.421875 0-7.625-6.03125-12.078125-6.03125-4.4375-16.578125-4.4375-4.390625 0-9.15625.859375-4.765625.859375-10.03125 2.5625v9.28125q4.984375-2.59375 9.8125-3.890625 4.828125-1.28125 9.578125-1.28125 6.34375 0 9.75 2.171875 3.421875 2.171875 3.421875 6.125 0 3.65625-2.46875 5.609375-2.453125 1.953125-10.8125 3.765625l-3.125.734375q-8.34375 1.75-12.0625 5.390625-3.703125 3.640625-3.703125 9.984375 0 7.71875 5.46875 11.90625 5.46875 4.203125 15.53125 4.203125 4.96875 0 9.359375-.734375 4.40625-.71875 8.109375-2.1875z" stroke-linejoin="round"/></defs><g stroke-linejoin="round"><path d="m0 432h432v-432h-432z" fill="#fff" transform="scale(.8)"/><g><g stroke-linejoin="round"><path d="m52.34 390.04h363.16v-363.16h-363.16z" fill="#fff" transform="scale(.8)"/><g transform="scale(.8)"><g clip-path="url(#a)"><use fill="#1f77b4" height="100%" stroke-linejoin="round" width="100%" x="80.275383" xlink:href="#b" y="361.40366"/></g><g clip-path="url(#a)"><use fill="#1f77b4" height="100%" stroke-linejoin="round" width="100%" x="80.275383" xlink:href="#b" y="361.00339"/></g><g clip-path="url(#a)"><use fill="#1f77b4" height="100%" stroke-linejoin="round" width="100%" x="80.275383" xlink:href="#b" y="360.88394"/></g><g clip-path="url(#a)"><use fill="#1f77b4" height="100%" stroke-linejoin="round" width="100%" x="80.275383" xlink:href="#b" y="360.64587"/></g><g clip-path="url(#a)"><use fill="#1f77b4" height="100%" stroke-linejoin="round" width="100%" x="80.275383" xlink:href="#b" y="359.93155"/></g><g clip-path="url(#a)"><use fill="#1f77b4" height="100%" stroke-linejoin="round" width="100%" x="80.275383" xlink:href="#b" y="359.91513"/></g><g clip-path="url(#a)"><use fill="#1f77b4" height="100%" stroke-linejoin="round" width="100%" x="80.275383" xlink:href="#b" y="359.82809"/></g><g clip-path="url(#a)"><use fill="#1f77b4" height="100%" stroke-linejoin="round" width="100%" x="80.275383" xlink:href="#b" y="359.20798"/></g><g clip-path="url(#a)"><use fill="#1f77b4" height="100%" stroke-linejoin="round" width="100%" x="80.275383" xlink:href="#b" y="358.9263"/></g><g clip-path="url(#a)"><use fill="#1f77b4" height="100%" stroke-linejoin="round" width="100%" x="80.275383" xlink:href="#b" y="358.79626"/></g><g clip-path="url(#a)"><use fill="#1f77b4" height="100%" stroke-linejoin="round" width="100%" x="80.275383" xlink:href="#b" y="358.72617"/></g><g clip-path="url(#a)"><use fill="#1f77b4" height="100%" stroke-linejoin="round" width="100%" x="80.275383" xlink:href="#b" y="358.71716"/></g><g clip-path="url(#a)"><use fill="#1f77b4" height="100%" stroke-linejoin="round" width="100%" x="80.275383" xlink:href="#b" y="358.63379"/></g><g clip-path="url(#a)"><use fill="#1f77b4" height="100%" stroke-linejoin="round" width="100%" x="80.275383" xlink:href="#b" y="358.19202"/></g><g clip-path="url(#a)"><use fill="#1f77b4" height="100%" stroke-linejoin="round" width="100%" x="80.275383" xlink:href="#b" y="358.05014"/></g><g clip-path="url(#a)"><use fill="#1f77b4" height="100%" stroke-linejoin="round" width="100%" x="80.275383" xlink:href="#b" y="358.04501"/></g><g clip-path="url(#a)"><use fill="#1f77b4" height="100%" stroke-linejoin="round" width="100%" x="80.275383" xlink:href="#b" y="357.99741"/></g><g clip-path="url(#a)"><use fill="#1f77b4" height="100%" stroke-linejoin="round" width="100%" x="80.275383" xlink:href="#b" y="357.49585"/></g><g clip-path="url(#a)"><use fill="#1f77b4" height="100%" stroke-linejoin="round" width="100%" x="80.275383" xlink:href="#b" y="356.99356"/></g><g clip-path="url(#a)"><use fill="#1f77b4" height="100%" stroke-linejoin="round" width="100%" x="80.275383" xlink:href="#b" y="355.0332"/></g><g clip-path="url(#a)"><use fill="#1f77b4" height="100%" stroke-linejoin="round" width="100%" x="80.275383" xlink:href="#b" y="354.92679"/></g><g clip-path="url(#a)"><use fill="#1f77b4" height="100%" stroke-linejoin="round" width="100%" x="80.275383" xlink:href="#b" y="354.61398"/></g><g clip-path="url(#a)"><use fill="#1f77b4" height="100%" stroke-linejoin="round" width="100%" x="80.275383" xlink:href="#b" y="354.53107"/></g><g clip-path="url(#a)"><use fill="#1f77b4" height="100%" stroke-linejoin="round" width="100%" x="80.275383" xlink:href="#b" y="354.48105"/></g><g clip-path="url(#a)"><use fill="#1f77b4" height="100%" stroke-linejoin="round" width="100%" x="80.275383" xlink:href="#b" y="354.4382"/></g><g clip-path="url(#a)"><use fill="#1f77b4" height="100%" stroke-linejoin="round" width="100%" x="80.275383" xlink:href="#b" y="354.41495"/></g><g clip-path="url(#a)"><use fill="#1f77b4" height="100%" stroke-linejoin="round" width="100%" x="80.275383" xlink:href="#b" y="354.2926"/></g><g clip-path="url(#a)"><use fill="#1f77b4" height="100%" stroke-linejoin="round" width="100%" x="80.275383" xlink:href="#b" y="353.05899"/></g><g clip-path="url(#a)"><use fill="#1f77b4" height="100%" stroke-linejoin="round" width="100%" x="80.275383" xlink:href="#b" y="351.72897"/></g><g clip-path="url(#a)"><use fill="#1f77b4" height="100%" stroke-linejoin="round" width="100%" x="80.275383" xlink:href="#b" y="351.41568"/></g><g clip-path="url(#a)"><use fill="#1f77b4" height="100%" stroke-linejoin="round" width="100%" x="80.275383" xlink:href="#b" y="351.13315"/></g><g clip-path="url(#a)"><use fill="#1f77b4" height="100%" stroke-linejoin="round" width="100%" x="80.275383" xlink:href="#b" y="351.02637"/></g><g clip-path="url(#a)"><use fill="#1f77b4" height="100%" stroke-linejoin="round" width="100%" x="80.275383" xlink:href="#b" y="350.3555"/></g><g clip-path="url(#a)"><use fill="#1f77b4" height="100%" stroke-linejoin="round" width="100%" x="80.275383" xlink:href="#b" y="350.32278"/></g><g clip-path="url(#a)"><use fill="#1f77b4" height="100%" stroke-linejoin="round" width="100%" x="80.275383" xlink:href="#b" y="349.5593"/></g><g clip-path="url(#a)"><use fill="#1f77b4" height="100%" stroke-linejoin="round" width="100%" x="80.275383" xlink:href="#b" y="349.3515"/></g><g clip-path="url(#a)"><use fill="#1f77b4" height="100%" stroke-linejoin="round" width="100%" x="80.275383" xlink:href="#b" y="348.82364"/></g><g clip-path="url(#a)"><use fill="#1f77b4" height="100%" stroke-linejoin="round" width="100%" x="80.275383" xlink:href="#b" y="348.24966"/></g><g clip-path="url(#a)"><use fill="#1f77b4" height="100%" stroke-linejoin="round" width="100%" x="80.275383" xlink:href="#b" y="347.47403"/></g><g clip-path="url(#a)"><use fill="#1f77b4" height="100%" stroke-linejoin="round" width="100%" x="80.275383" xlink:href="#b" y="347.28317"/></g><g clip-path="url(#a)"><use fill="#1f77b4" height="100%" stroke-linejoin="round" width="100%" x="80.275383" xlink:href="#b" y="344.74182"/></g><g clip-path="url(#a)"><use fill="#1f77b4" height="100%" stroke-linejoin="round" width="100%" x="80.275383" xlink:href="#b" y="343.76047"/></g><g clip-path="url(#a)"><use fill="#1f77b4" height="100%" stroke-linejoin="round" width="100%" x="80.275383" xlink:href="#b" y="343.46805"/></g><g clip-path="url(#a)"><use fill="#1f77b4" height="100%" stroke-linejoin="round" width="100%" x="80.275383" xlink:href="#b" y="341.20282"/></g><g clip-path="url(#a)"><use fill="#1f77b4" height="100%" stroke-linejoin="round" width="100%" x="80.275383" xlink:href="#b" y="341.16205"/></g><g clip-path="url(#a)"><use fill="#1f77b4" height="100%" stroke-linejoin="round" width="100%" x="80.275383" xlink:href="#b" y="340.16562"/></g><g clip-path="url(#a)"><use fill="#1f77b4" height="100%" stroke-linejoin="round" width="100%" x="80.275383" xlink:href="#b" y="339.79095"/></g><g clip-path="url(#a)"><use fill="#1f77b4" height="100%" stroke-linejoin="round" width="100%" x="80.275383" xlink:href="#b" y="339.71133"/></g><g clip-path="url(#a)"><use fill="#1f77b4" height="100%" stroke-linejoin="round" width="100%" x="80.275383" xlink:href="#b" y="334.49316"/></g><g clip-path="url(#a)"><use fill="#1f77b4" height="100%" stroke-linejoin="round" width="100%" x="80.275383" xlink:href="#b" y="332.88327"/></g><g clip-path="url(#a)"><use fill="#1f77b4" height="100%" stroke-linejoin="round" width="100%" x="80.275383" xlink:href="#b" y="331.98895"/></g><g clip-path="url(#a)"><use fill="#1f77b4" height="100%" stroke-linejoin="round" width="100%" x="80.275383" xlink:href="#b" y="331.23883"/></g><g clip-path="url(#a)"><use fill="#1f77b4" height="100%" stroke-linejoin="round" width="100%" x="80.275383" xlink:href="#b" y="331.06485"/></g><g clip-path="url(#a)"><use fill="#1f77b4" height="100%" stroke-linejoin="round" width="100%" x="80.275383" xlink:href="#b" y="329.79999"/></g><g clip-path="url(#a)"><use fill="#1f77b4" height="100%" stroke-linejoin="round" width="100%" x="80.275383" xlink:href="#b" y="328.48291"/></g><g clip-path="url(#a)"><use fill="#1f77b4" height="100%" stroke-linejoin="round" width="100%" x="80.275383" xlink:href="#b" y="328.01132"/></g><g clip-path="url(#a)"><use fill="#1f77b4" height="100%" stroke-linejoin="round" width="100%" x="80.275383" xlink:href="#b" y="326.69223"/></g><g clip-path="url(#a)"><use fill="#1f77b4" height="100%" stroke-linejoin="round" width="100%" x="80.275383" xlink:href="#b" y="326.23129"/></g><g clip-path="url(#a)"><use fill="#1f77b4" height="100%" stroke-linejoin="round" width="100%" x="80.275383" xlink:href="#b" y="320.12106"/></g><g clip-path="url(#a)"><use fill="#1f77b4" height="100%" stroke-linejoin="round" width="100%" x="80.275383" xlink:href="#b" y="319.55215"/></g><g clip-path="url(#a)"><use fill="#1f77b4" height="100%" stroke-linejoin="round" width="100%" x="80.275383" xlink:href="#b" y="317.35068"/></g><g clip-path="url(#a)"><use fill="#1f77b4" height="100%" stroke-linejoin="round" width="100%" x="80.275383" xlink:href="#b" y="315.39075"/></g><g clip-path="url(#a)"><use fill="#1f77b4" height="100%" stroke-linejoin="round" width="100%" x="80.275383" xlink:href="#b" y="304.14597"/></g><g clip-path="url(#a)"><use fill="#1f77b4" height="100%" stroke-linejoin="round" width="100%" x="80.275383" xlink:href="#b" y="185.39543"/></g><g clip-path="url(#a)"><use fill="#1f77b4" height="100%" stroke-linejoin="round" width="100%" x="80.275383" xlink:href="#b" y="185.39169"/></g><g clip-path="url(#a)"><use fill="#1f77b4" height="100%" stroke-linejoin="round" width="100%" x="80.275383" xlink:href="#b" y="183.44963"/></g><g clip-path="url(#a)"><use fill="#1f77b4" height="100%" stroke-linejoin="round" width="100%" x="80.275383" xlink:href="#b" y="82.750771"/></g><g clip-path="url(#a)"><use fill="#1f77b4" height="100%" stroke-linejoin="round" width="100%" x="80.275383" xlink:href="#b" y="45.037994"/></g></g><g><g><use height="100%" stroke="#000" stroke-width=".8" transform="scale(.8)" width="100%" x="80.275383" xlink:href="#c" y="390.04001"/><g transform="matrix(.08 0 0 -.08 57.8590576 323.710752)"><use height="100%" width="100%" xlink:href="#d"/><use height="100%" width="100%" x="63.623047" xlink:href="#e"/><use height="100%" width="100%" x="95.410156" xlink:href="#d"/></g></g><g><use height="100%" stroke="#000" stroke-width=".8" transform="scale(.8)" width="100%" x="150.95834" xlink:href="#c" y="390.04001"/><g transform="matrix(.08 0 0 -.08 114.405424 323.710752)"><use height="100%" width="100%" xlink:href="#d"/><use height="100%" width="100%" x="63.623047" xlink:href="#e"/><use height="100%" width="100%" x="95.410156" xlink:href="#f"/></g></g><g><use height="100%" stroke="#000" stroke-width=".8" transform="scale(.8)" width="100%" x="221.64131" xlink:href="#c" y="390.04001"/><g transform="matrix(.08 0 0 -.08 170.9518 323.710752)"><use height="100%" width="100%" xlink:href="#d"/><use height="100%" width="100%" x="63.623047" xlink:href="#e"/><use height="100%" width="100%" x="95.410156" xlink:href="#g"/></g></g><g><use height="100%" stroke="#000" stroke-width=".8" transform="scale(.8)" width="100%" x="292.32428" xlink:href="#c" y="390.04001"/><g transform="matrix(.08 0 0 -.08 227.498168 323.710752)"><use height="100%" width="100%" xlink:href="#d"/><use height="100%" width="100%" x="63.623047" xlink:href="#e"/><use height="100%" width="100%" x="95.410156" xlink:href="#h"/></g></g><g><use height="100%" stroke="#000" stroke-width=".8" transform="scale(.8)" width="100%" x="363.00723" xlink:href="#c" y="390.04001"/><g transform="matrix(.08 0 0 -.08 284.044536 323.710752)"><use height="100%" width="100%" xlink:href="#d"/><use height="100%" width="100%" x="63.623047" xlink:href="#e"/><use height="100%" width="100%" x="95.410156" xlink:href="#i"/></g></g><g transform="matrix(.08 0 0 -.08 177.532872 334.653248)"><path d="m19.671875 34.8125v-26.703125h15.828125q7.953125 0 11.78125 3.296875 3.84375 3.296875 3.84375 10.078125 0 6.84375-3.84375 10.078125-3.828125 3.25-11.78125 3.25zm0 29.984375v-21.96875h14.609375q7.21875 0 10.75 2.703125 3.546875 2.71875 3.546875 8.28125 0 5.515625-3.546875 8.25-3.53125 2.734375-10.75 2.734375zm-9.859375 8.109375h25.203125q11.28125 0 17.375-4.6875 6.109375-4.6875 6.109375-13.328125 0-6.703125-3.125-10.65625-3.125-3.953125-9.1875-4.921875 7.28125-1.5625 11.3125-6.53125 4.03125-4.953125 4.03125-12.375 0-9.765625-6.640625-15.09375-6.640625-5.3125-18.90625-5.3125h-26.171875z" height="100%" width="100%"/><use height="100%" width="100%" x="68.603516" xlink:href="#j"/><use height="100%" width="100%" x="96.386719" xlink:href="#k"/><use height="100%" width="100%" x="137.5" xlink:href="#l"/><use height="100%" width="100%" x="176.70898" xlink:href="#m"/></g></g><g><g><use height="100%" stroke="#000" stroke-width=".8" transform="scale(.8)" width="100%" x="52.34" xlink:href="#n" y="362.10461"/><g transform="matrix(.08 0 0 -.08 23.5495 292.723064)"><use height="100%" width="100%" xlink:href="#d"/><use height="100%" width="100%" x="63.623047" xlink:href="#e"/><use height="100%" width="100%" x="95.410156" xlink:href="#d"/></g></g><g><use height="100%" stroke="#000" stroke-width=".8" transform="scale(.8)" width="100%" x="52.34" xlink:href="#n" y="291.42166"/><g transform="matrix(.08 0 0 -.08 23.5495 236.176696)"><use height="100%" width="100%" xlink:href="#d"/><use height="100%" width="100%" x="63.623047" xlink:href="#e"/><use height="100%" width="100%" x="95.410156" xlink:href="#f"/></g></g><g><use height="100%" stroke="#000" stroke-width=".8" transform="scale(.8)" width="100%" x="52.34" xlink:href="#n" y="220.73869"/><g transform="matrix(.08 0 0 -.08 23.5495 179.630328)"><use height="100%" width="100%" xlink:href="#d"/><use height="100%" width="100%" x="63.623047" xlink:href="#e"/><use height="100%" width="100%" x="95.410156" xlink:href="#g"/></g></g><g><use height="100%" stroke="#000" stroke-width=".8" transform="scale(.8)" width="100%" x="52.34" xlink:href="#n" y="150.05573"/><g transform="matrix(.08 0 0 -.08 23.5495 123.083952)"><use height="100%" width="100%" xlink:href="#d"/><use height="100%" width="100%" x="63.623047" xlink:href="#e"/><use height="100%" width="100%" x="95.410156" xlink:href="#h"/></g></g><g><use height="100%" stroke="#000" stroke-width=".8" transform="scale(.8)" width="100%" x="52.34" xlink:href="#n" y="79.372765"/><g transform="matrix(.08 0 0 -.08 23.5495 66.5375856)"><use height="100%" width="100%" xlink:href="#d"/><use height="100%" width="100%" x="63.623047" xlink:href="#e"/><use height="100%" width="100%" x="95.410156" xlink:href="#i"/></g></g><g transform="matrix(0 -.08 -.08 0 18.6857504 178.863624)"><use height="100%" width="100%" xlink:href="#o"/><use height="100%" width="100%" x="77.001953" xlink:href="#p"/><use height="100%" width="100%" x="138.52539" xlink:href="#q"/><use height="100%" width="100%" x="199.80469" xlink:href="#l"/><use height="100%" width="100%" x="239.01367" xlink:href="#m"/></g></g><path clip-path="url(#a)" d="m52.34 390.04 363.16-363.16" fill="none" stroke="#000" stroke-dasharray="5.55 2.4" stroke-width="1.5" transform="scale(.8)"/><path clip-path="url(#a)" d="m52.34 45.038h363.16" fill="none" stroke="#000" stroke-dasharray="5.55 2.4" stroke-width="1.5" transform="scale(.8)"/></g><path d="m52.34 390.04v-363.16" fill="none" stroke="#000" stroke-linecap="square" stroke-linejoin="miter" stroke-width=".8" transform="scale(.8)"/><path d="m415.5 390.04v-363.16" fill="none" stroke="#000" stroke-linecap="square" stroke-linejoin="miter" stroke-width=".8" transform="scale(.8)"/><path d="m52.34 390.04h363.16" fill="none" stroke="#000" stroke-linecap="square" stroke-linejoin="miter" stroke-width=".8" transform="scale(.8)"/><path d="m52.34 26.88h363.16" fill="none" stroke="#000" stroke-linecap="square" stroke-linejoin="miter" stroke-width=".8" transform="scale(.8)"/><g stroke-linejoin="round" transform="matrix(.096 0 0 -.096 137.550504 16.704)"><path d="m19.671875 64.796875v-27.390625h12.40625q6.890625 0 10.640625 3.5625 3.765625 3.5625 3.765625 10.15625 0 6.546875-3.765625 10.109375-3.75 3.5625-10.640625 3.5625zm-9.859375 8.109375h22.265625q12.265625 0 18.53125-5.546875 6.28125-5.546875 6.28125-16.234375 0-10.796875-6.28125-16.3125-6.265625-5.515625-18.53125-5.515625h-12.40625v-29.296875h-9.859375z" height="100%" width="100%"/><use height="100%" width="100%" x="56.677734" xlink:href="#p"/><use height="100%" width="100%" x="118.20117" xlink:href="#k"/><use height="100%" width="100%" x="159.31445" xlink:href="#r"/><use height="100%" width="100%" x="211.41406" xlink:href="#j"/><use height="100%" width="100%" x="239.19727" xlink:href="#r"/><use height="100%" width="100%" x="291.29688" xlink:href="#l"/><use height="100%" width="100%" x="330.50586" xlink:href="#p"/><path d="m54.890625 33.015625v-33.015625h-8.984375v32.71875q0 7.765625-3.03125 11.609375-3.03125 3.859375-9.078125 3.859375-7.28125 0-11.484375-4.640625-4.203125-4.625-4.203125-12.640625v-30.90625h-9.03125v54.6875h9.03125v-8.5q3.234375 4.9375 7.59375 7.375 4.375 2.4375 10.09375 2.4375 9.421875 0 14.25-5.828125 4.84375-5.828125 4.84375-17.15625z" height="100%" transform="translate(392.0293)" width="100%"/><path d="m48.78125 52.59375v-8.40625q-3.8125 2.109375-7.640625 3.15625-3.828125 1.046875-7.734375 1.046875-8.75 0-13.59375-5.546875-4.828125-5.53125-4.828125-15.546875 0-10.015625 4.828125-15.5625 4.84375-5.53125 13.59375-5.53125 3.90625 0 7.734375 1.046875 3.828125 1.046875 7.640625 3.15625v-8.3125q-3.765625-1.75-7.796875-2.625-4.015625-.890625-8.5625-.890625-12.359375 0-19.640625 7.765625-7.265625 7.765625-7.265625 20.953125 0 13.375 7.34375 21.03125 7.359375 7.671875 20.15625 7.671875 4.140625 0 8.09375-.859375 3.953125-.84375 7.671875-2.546875z" height="100%" transform="translate(455.4082)" width="100%"/><use height="100%" width="100%" x="510.38867" xlink:href="#p"/><use height="100%" width="100%" x="603.69922" xlink:href="#o"/><use height="100%" width="100%" x="680.70117" xlink:href="#j"/><use height="100%" width="100%" x="708.48438" xlink:href="#q"/><path d="m45.40625 27.984375q0 9.765625-4.03125 15.125-4.015625 5.375-11.296875 5.375-7.21875 0-11.25-5.375-4.03125-5.359375-4.03125-15.125 0-9.71875 4.03125-15.09375 4.03125-5.375 11.25-5.375 7.28125 0 11.296875 5.375 4.03125 5.375 4.03125 15.09375zm8.984375-21.203125q0-13.953125-6.203125-20.765625-6.1875-6.8125-18.984375-6.8125-4.734375 0-8.9375.703125-4.203125.703125-8.15625 2.171875v8.734375q3.953125-2.140625 7.8125-3.15625 3.859375-1.03125 7.859375-1.03125 8.84375 0 13.234375 4.609375 4.390625 4.609375 4.390625 13.9375v4.453125q-2.78125-4.84375-7.125-7.234375-4.34375-2.390625-10.40625-2.390625-10.046875 0-16.203125 7.65625-6.15625 7.671875-6.15625 20.328125 0 12.6875 6.15625 20.34375 6.15625 7.671875 16.203125 7.671875 6.0625 0 10.40625-2.390625 4.34375-2.390625 7.125-7.21875v8.296875h8.984375z" height="100%" transform="translate(769.76367)" width="100%"/><use height="100%" width="100%" x="833.24023" xlink:href="#k"/><use height="100%" width="100%" x="874.35352" xlink:href="#q"/><path d="m52 44.1875q3.375 6.0625 8.0625 8.9375 4.6875 2.875 11.03125 2.875 8.546875 0 13.1875-5.984375 4.640625-5.96875 4.640625-17v-33.015625h-9.03125v32.71875q0 7.859375-2.796875 11.65625-2.78125 3.8125-8.484375 3.8125-6.984375 0-11.046875-4.640625-4.046875-4.625-4.046875-12.640625v-30.90625h-9.03125v32.71875q0 7.90625-2.78125 11.6875-2.78125 3.78125-8.59375 3.78125-6.890625 0-10.953125-4.65625-4.046875-4.65625-4.046875-12.625v-30.90625h-9.03125v54.6875h9.03125v-8.5q3.078125 5.03125 7.375 7.421875 4.296875 2.390625 10.203125 2.390625 5.96875 0 10.140625-3.03125 4.171875-3.015625 6.171875-8.78125z" height="100%" transform="translate(935.63281)" width="100%"/></g><g stroke-linejoin="round"><path d="m364.2 385.04h44.3q2 0 2-2v-28.35625q0-2-2-2h-44.3q-2 0-2 2v28.35625q0 2 2 2z" fill="#fff" opacity=".8" stroke="#ccc" stroke-linejoin="miter" transform="scale(.8)"/><g stroke-linejoin="round"><path d="m366.2 360.78219h20" fill="none" stroke="#000" stroke-dasharray="5.55 2.4" stroke-width="1.5" transform="scale(.8)"/><path d="m45.5625 17.046875q-1.515625 1.75-3.90625 5.859375-3.28125-5.859375-6.15625-8.453125-3.609375-3.125-9.234375-3.125-6.59375 0-10.9375 4.9375-4.578125 5.171875-4.578125 13.71875 0 8.203125 4.578125 13.765625 4.109375 4.9375 11.046875 4.9375 3.5625 0 6.1875-1.46875 3.078125-1.609375 5.1875-4.390625 1.953125-2.5 3.90625-5.859375 3.265625 5.859375 6.140625 8.4375 3.625 3.125 9.234375 3.125 6.59375 0 10.9375-4.921875 4.59375-5.1875 4.59375-13.71875 0-8.203125-4.59375-13.78125-4.09375-4.921875-11.03125-4.921875-3.5625 0-6.203125 1.453125-2.640625 1.328125-5.171875 4.40625zm-19.828125.671875q8.0625 0 12.890625 11.71875-6.203125 12.796875-12.890625 12.796875-4.890625 0-7.375-3.515625-2.6875-3.75-2.6875-8.734375 0-5.46875 2.6875-8.84375 2.734375-3.421875 7.375-3.421875zm31.828125 24.421875q-7.265625 0-12.890625-11.71875 6.15625-12.796875 12.890625-12.796875 4.890625 0 7.375 3.515625 2.6875 3.765625 2.6875 8.75 0 5.46875-2.6875 8.828125-2.734375 3.421875-7.375 3.421875z" height="100%" transform="matrix(.08 0 0 -.08 315.36 291.400752)" width="100%"/><path d="m376.2 378.57138c.59301 0 1.16182-.23561 1.58114-.65493s.65493-.98813.65493-1.58114-.23561-1.16181-.65493-1.58114c-.41932-.41932-.98813-.65493-1.58114-.65493s-1.16182.23561-1.58114.65493c-.41932.41933-.65493.98813-.65493 1.58114s.23561 1.16182.65493 1.58114.98813.65493 1.58114.65493z" fill="#1f77b4" transform="scale(.8)"/><g transform="matrix(.08 0 0 -.08 315.36 303.168248)"><path d="m16.890625 72.90625h9.921875l-5.8125-29.890625h35.78125l5.8125 29.890625h9.921875l-14.21875-72.90625h-9.90625l6.78125 34.71875h-35.78125l-6.796875-34.71875h-9.90625z" height="100%" transform="translate(0 .09375)" width="100%"/><use height="100%" transform="matrix(.7 0 0 .7 75.195312 -16.3125)" width="100%" xlink:href="#d"/></g></g></g></g></g></svg>