<svg height="230.39999pt" stroke-linejoin="round" viewBox="0 0 345.60001 230.39999" width="345.60001pt" xmlns="http://www.w3.org/2000/svg" xmlns:xlink="http://www.w3.org/1999/xlink"><defs stroke-linejoin="round"><clipPath id="a" stroke-linejoin="round"><path d="m54 34.560001h334.79999v221.75999h-334.79999z"/></clipPath><path id="b" d="m0 0v3.5" stroke="#000" stroke-linejoin="round" stroke-width=".8"/><path id="c" d="m31.78125 66.40625q-7.609375 0-11.453125-7.5-3.828125-7.484375-3.828125-22.53125 0-14.984375 3.828125-22.484375 3.84375-7.5 11.453125-7.5 7.671875 0 11.5 7.5 3.84375 7.5 3.84375 22.484375 0 15.046875-3.84375 22.53125-3.828125 7.5-11.5 7.5zm0 7.8125q12.265625 0 18.734375-9.703125 6.46875-9.6875 6.46875-28.140625 0-18.40625-6.46875-28.109375-6.46875-9.6875-18.734375-9.6875-12.25 0-18.71875 9.6875-6.46875 9.703125-6.46875 28.109375 0 18.453125 6.46875 28.140625 6.46875 9.703125 18.71875 9.703125z" stroke-linejoin="round"/><path id="d" d="m10.6875 12.40625h10.3125v-12.40625h-10.3125z" stroke-linejoin="round"/><path id="e" d="m34.28125 27.484375q-10.890625 0-15.09375-2.484375-4.203125-2.484375-4.203125-8.5 0-4.78125 3.15625-7.59375 3.15625-2.796875 8.5625-2.796875 7.484375 0 12 5.296875 4.515625 5.296875 4.515625 14.078125v2zm17.921875 3.71875v-31.203125h-8.984375v8.296875q-3.078125-4.96875-7.671875-7.34375-4.59375-2.375-11.234375-2.375-8.390625 0-13.359375 4.71875-4.953125 4.71875-4.953125 12.625 0 9.21875 6.171875 13.90625 6.1875 4.6875 18.4375 4.6875h12.609375v.890625q0 6.203125-4.078125 9.59375-4.078125 3.390625-11.453125 3.390625-4.6875 0-9.140625-1.125-4.4375-1.125-8.53125-3.375v8.3125q4.921875 1.90625 9.5625 2.84375 4.640625.953125 9.03125.953125 11.875 0 17.734375-6.15625 5.859375-6.140625 5.859375-18.640625z" stroke-linejoin="round"/><path id="f" d="m41.109375 46.296875q-1.515625.875-3.296875 1.28125-1.78125.421875-3.921875.421875-7.625 0-11.703125-4.953125-4.078125-4.953125-4.078125-14.234375v-28.8125h-9.03125v54.6875h9.03125v-8.5q2.84375 4.984375 7.375 7.390625 4.546875 2.421875 11.046875 2.421875.921875 0 2.046875-.125 1.125-.109375 2.484375-.359375z" stroke-linejoin="round"/></defs><g stroke-linejoin="round"><path d="m0 288h432v-288h-432z" fill="#fff" transform="scale(.8)"/><g><path d="m54 256.32h334.8v-221.76h-334.8z" fill="#fff" stroke-linejoin="round" transform="scale(.8)"/><g stroke-linejoin="round"><g><use height="100%" stroke="#000" stroke-width=".8" transform="scale(.8)" width="100%" x="69.218185" xlink:href="#b" y="256.32001"/><g transform="matrix(.08 0 0 -.08 49.0132952 216.734752)"><use height="100%" width="100%" xlink:href="#c"/><use height="100%" width="100%" x="63.623047" xlink:href="#d"/><use height="100%" width="100%" x="95.410156" xlink:href="#c"/></g></g><g><use height="100%" stroke="#000" stroke-width=".8" transform="scale(.8)" width="100%" x="107.72369" xlink:href="#b" y="256.32001"/><g transform="matrix(.08 0 0 -.08 79.8177024 216.734752)"><use height="100%" width="100%" xlink:href="#c"/><use height="100%" width="100%" x="63.623047" xlink:href="#d"/><path d="m12.40625 8.296875h16.109375v55.625l-17.53125-3.515625v8.984375l17.4375 3.515625h9.859375v-64.609375h16.109375v-8.296875h-41.984375z" height="100%" transform="translate(95.410156)" width="100%"/></g></g><g><use height="100%" stroke="#000" stroke-width=".8" transform="scale(.8)" width="100%" x="146.2292" xlink:href="#b" y="256.32001"/><g transform="matrix(.08 0 0 -.08 110.622112 216.734752)"><use height="100%" width="100%" xlink:href="#c"/><use height="100%" width="100%" x="63.623047" xlink:href="#d"/><path d="m19.1875 8.296875h34.421875v-8.296875h-46.28125v8.296875q5.609375 5.8125 15.296875 15.59375 9.703125 9.796875 12.1875 12.640625 4.734375 5.3125 6.609375 9 1.890625 3.6875 1.890625 7.25 0 5.8125-4.078125 9.46875-4.078125 3.671875-10.625 3.671875-4.640625 0-9.796875-1.609375-5.140625-1.609375-11-4.890625v9.96875q5.953125 2.390625 11.125 3.609375 5.1875 1.21875 9.484375 1.21875 11.328125 0 18.0625-5.671875 6.734375-5.65625 6.734375-15.125 0-4.5-1.6875-8.53125-1.671875-4.015625-6.125-9.484375-1.21875-1.421875-7.765625-8.1875-6.53125-6.765625-18.453125-18.921875z" height="100%" transform="translate(95.410156)" width="100%"/></g></g><g><use height="100%" stroke="#000" stroke-width=".8" transform="scale(.8)" width="100%" x="184.73471" xlink:href="#b" y="256.32001"/><g transform="matrix(.08 0 0 -.08 141.426512 216.734752)"><use height="100%" width="100%" xlink:href="#c"/><use height="100%" width="100%" x="63.623047" xlink:href="#d"/><path d="m40.578125 39.3125q7.078125-1.515625 11.046875-6.3125 3.984375-4.78125 3.984375-11.8125 0-10.78125-7.421875-16.703125-7.421875-5.90625-21.09375-5.90625-4.578125 0-9.4375.90625-4.859375.90625-10.03125 2.71875v9.515625q4.09375-2.390625 8.96875-3.609375 4.890625-1.21875 10.21875-1.21875 9.265625 0 14.125 3.65625 4.859375 3.65625 4.859375 10.640625 0 6.453125-4.515625 10.078125-4.515625 3.640625-12.5625 3.640625h-8.5v8.109375h8.890625q7.265625 0 11.125 2.90625 3.859375 2.90625 3.859375 8.375 0 5.609375-3.984375 8.609375-3.96875 3.015625-11.390625 3.015625-4.0625 0-8.703125-.890625-4.640625-.875-10.203125-2.71875v8.78125q5.625 1.5625 10.53125 2.34375 4.90625.78125 9.25.78125 11.234375 0 17.765625-5.109375 6.546875-5.09375 6.546875-13.78125 0-6.0625-3.46875-10.234375-3.46875-4.171875-9.859375-5.78125z" height="100%" transform="translate(95.410156)" width="100%"/></g></g><g><use height="100%" stroke="#000" stroke-width=".8" transform="scale(.8)" width="100%" x="223.24022" xlink:href="#b" y="256.32001"/><g transform="matrix(.08 0 0 -.08 172.23092 216.734752)"><use height="100%" width="100%" xlink:href="#c"/><use height="100%" width="100%" x="63.623047" xlink:href="#d"/><path d="m37.796875 64.3125-24.90625-38.921875h24.90625zm-2.59375 8.59375h12.40625v-47.515625h10.40625v-8.203125h-10.40625v-17.1875h-9.8125v17.1875h-32.90625v9.515625z" height="100%" transform="translate(95.410156)" width="100%"/></g></g><g><use height="100%" stroke="#000" stroke-width=".8" transform="scale(.8)" width="100%" x="261.74573" xlink:href="#b" y="256.32001"/><g transform="matrix(.08 0 0 -.08 203.035328 216.734752)"><use height="100%" width="100%" xlink:href="#c"/><use height="100%" width="100%" x="63.623047" xlink:href="#d"/><path d="m10.796875 72.90625h38.71875v-8.3125h-29.6875v-17.859375q2.140625.734375 4.28125 1.09375 2.15625.359375 4.3125.359375 12.203125 0 19.328125-6.6875 7.140625-6.6875 7.140625-18.109375 0-11.765625-7.328125-18.296875-7.328125-6.515625-20.65625-6.515625-4.59375 0-9.359375.78125-4.75.78125-9.828125 2.34375v9.921875q4.390625-2.390625 9.078125-3.5625 4.6875-1.171875 9.90625-1.171875 8.453125 0 13.375 4.4375 4.9375 4.4375 4.9375 12.0625 0 7.609375-4.9375 12.046875-4.921875 4.453125-13.375 4.453125-3.953125 0-7.890625-.875-3.921875-.875-8.015625-2.734375z" height="100%" transform="translate(95.410156)" width="100%"/></g></g><g><use height="100%" stroke="#000" stroke-width=".8" transform="scale(.8)" width="100%" x="300.25122" xlink:href="#b" y="256.32001"/><g transform="matrix(.08 0 0 -.08 233.839736 216.734752)"><use height="100%" width="100%" xlink:href="#c"/><use height="100%" width="100%" x="63.623047" xlink:href="#d"/><path d="m33.015625 40.375q-6.640625 0-10.53125-4.546875-3.875-4.53125-3.875-12.4375 0-7.859375 3.875-12.4375 3.890625-4.5625 10.53125-4.5625 6.640625 0 10.515625 4.5625 3.875 4.578125 3.875 12.4375 0 7.90625-3.875 12.4375-3.875 4.546875-10.515625 4.546875zm19.578125 30.921875v-8.984375q-3.71875 1.75-7.5 2.671875-3.78125.9375-7.5.9375-9.765625 0-14.921875-6.59375-5.140625-6.59375-5.875-19.921875 2.875 4.25 7.21875 6.515625 4.359375 2.265625 9.578125 2.265625 10.984375 0 17.359375-6.671875 6.375-6.65625 6.375-18.125 0-11.234375-6.640625-18.03125-6.640625-6.78125-17.671875-6.78125-12.65625 0-19.34375 9.6875-6.6875 9.703125-6.6875 28.109375 0 17.28125 8.203125 27.5625 8.203125 10.28125 22.015625 10.28125 3.71875 0 7.5-.734375 3.78125-.734375 7.890625-2.1875z" height="100%" transform="translate(95.410156)" width="100%"/></g></g><g><use height="100%" stroke="#000" stroke-width=".8" transform="scale(.8)" width="100%" x="338.75674" xlink:href="#b" y="256.32001"/><g transform="matrix(.08 0 0 -.08 264.644144 216.734752)"><use height="100%" width="100%" xlink:href="#c"/><use height="100%" width="100%" x="63.623047" xlink:href="#d"/><path d="m8.203125 72.90625h46.875v-4.203125l-26.46875-68.703125h-10.296875l24.90625 64.59375h-35.015625z" height="100%" transform="translate(95.410156)" width="100%"/></g></g><g><use height="100%" stroke="#000" stroke-width=".8" transform="scale(.8)" width="100%" x="377.26224" xlink:href="#b" y="256.32001"/><g transform="matrix(.08 0 0 -.08 295.448544 216.734752)"><use height="100%" width="100%" xlink:href="#c"/><use height="100%" width="100%" x="63.623047" xlink:href="#d"/><path d="m31.78125 34.625q-7.03125 0-11.0625-3.765625-4.015625-3.765625-4.015625-10.34375 0-6.59375 4.015625-10.359375 4.03125-3.765625 11.0625-3.765625 7.03125 0 11.078125 3.78125 4.0625 3.796875 4.0625 10.34375 0 6.578125-4.03125 10.34375-4.015625 3.765625-11.109375 3.765625zm-9.859375 4.1875q-6.34375 1.5625-9.890625 5.90625-3.53125 4.359375-3.53125 10.609375 0 8.734375 6.21875 13.8125 6.234375 5.078125 17.0625 5.078125 10.890625 0 17.09375-5.078125 6.203125-5.078125 6.203125-13.8125 0-6.25-3.546875-10.609375-3.53125-4.34375-9.828125-5.90625 7.125-1.65625 11.09375-6.5 3.984375-4.828125 3.984375-11.796875 0-10.609375-6.46875-16.28125-6.46875-5.65625-18.53125-5.65625-12.046875 0-18.53125 5.65625-6.46875 5.671875-6.46875 16.28125 0 6.96875 4 11.796875 4.015625 4.84375 11.140625 6.5zm-3.609375 15.578125q0-5.65625 3.53125-8.828125 3.546875-3.171875 9.9375-3.171875 6.359375 0 9.9375 3.171875 3.59375 3.171875 3.59375 8.828125 0 5.671875-3.59375 8.84375-3.578125 3.171875-9.9375 3.171875-6.390625 0-9.9375-3.171875-3.53125-3.171875-3.53125-8.84375z" height="100%" transform="translate(95.410156)" width="100%"/></g></g><path d="m19.734375 29.5q-5.28125 1.171875-7.578125 4.34375-1.703125 2.234375-1.703125 5.265625 0 8.296875 7.90625 13.140625 6.25 3.8125 15.828125 3.8125 3.703125 0 7.75-.59375 4.0625-.578125 8.59375-1.75l-1.5625-8.15625q-4.484375 1.40625-8.25 2.046875-3.859375.640625-7.3125.640625-5.8125 0-9.625-2.25-4.59375-2.6875-4.59375-6.59375 0-2.59375 2.390625-4.390625 2.84375-2.15625 8.5-2.15625h7.5625l-1.40625-7.421875h-7.234375q-6.734375 0-10.6875-2.484375-5.375-3.375-5.375-8.640625 0-3.328125 2.890625-5.515625 3.609375-2.734375 10.984375-2.734375 4.53125 0 8.875.875 4.359375.921875 8.15625 2.734375l-1.65625-8.359375q-4.640625-1.359375-8.890625-2.046875-4.25-.6875-8.15625-.6875-11.609375 0-17.078125 4.453125-4.15625 3.421875-4.15625 9.171875 0 7.765625 5.46875 12.546875 4.046875 3.578125 10.359375 4.75z" height="100%" transform="matrix(.08 0 0 -.08 174.92 227.602248)" width="100%"/></g><g stroke-linejoin="round" transform="matrix(0 -.08 -.08 0 38.3362504 121.272)"><path d="m16.890625 72.90625h9.921875l-5.8125-29.890625h35.78125l5.8125 29.890625h9.921875l-14.21875-72.90625h-9.90625l6.78125 34.71875h-35.78125l-6.796875-34.71875h-9.90625z" height="100%" transform="translate(0 .09375)" width="100%"/><use height="100%" transform="matrix(.7 0 0 .7 75.195312 -16.3125)" width="100%" xlink:href="#c"/></g><g fill="none" stroke-linecap="square" transform="scale(.8)"><path clip-path="url(#a)" d="m69.218182 246.24h.763731" stroke="#1f77b4" stroke-linejoin="round" stroke-width="1.5"/><path clip-path="url(#a)" d="m69.218182 243.23104h1.199808" stroke="#1f77b4" stroke-linejoin="round" stroke-width="1.5"/><path clip-path="url(#a)" d="m69.218182 240.22209h1.329947" stroke="#1f77b4" stroke-linejoin="round" stroke-width="1.5"/><path clip-path="url(#a)" d="m69.218182 237.21313h1.589332" stroke="#1f77b4" stroke-linejoin="round" stroke-width="1.5"/><path clip-path="url(#a)" d="m69.218182 234.20418h2.367626" stroke="#1f77b4" stroke-linejoin="round" stroke-width="1.5"/><path clip-path="url(#a)" d="m69.218182 231.19522h2.385502" stroke="#1f77b4" stroke-linejoin="round" stroke-width="1.5"/><path clip-path="url(#a)" d="m69.218182 228.18627h2.480341" stroke="#1f77b4" stroke-linejoin="round" stroke-width="1.5"/><path clip-path="url(#a)" d="m69.218182 225.17731h3.155972" stroke="#1f77b4" stroke-linejoin="round" stroke-width="1.5"/><path clip-path="url(#a)" d="m69.218182 222.16836h3.462854" stroke="#1f77b4" stroke-linejoin="round" stroke-width="1.5"/><path clip-path="url(#a)" d="m69.218182 219.1594h3.604527" stroke="#1f77b4" stroke-linejoin="round" stroke-width="1.5"/><path clip-path="url(#a)" d="m69.218182 216.15045h3.680901" stroke="#1f77b4" stroke-linejoin="round" stroke-width="1.5"/><path clip-path="url(#a)" d="m69.218182 213.14149h3.690726" stroke="#1f77b4" stroke-linejoin="round" stroke-width="1.5"/><path clip-path="url(#a)" d="m69.218182 210.13254h3.781575" stroke="#1f77b4" stroke-linejoin="round" stroke-width="1.5"/><path clip-path="url(#a)" d="m69.218182 207.12358h4.262876" stroke="#1f77b4" stroke-linejoin="round" stroke-width="1.5"/><path clip-path="url(#a)" d="m69.218182 204.11463h4.417467" stroke="#1f77b4" stroke-linejoin="round" stroke-width="1.5"/><path clip-path="url(#a)" d="m69.218182 201.10567h4.423057" stroke="#1f77b4" stroke-linejoin="round" stroke-width="1.5"/><path clip-path="url(#a)" d="m69.218182 198.09672h4.474924" stroke="#1f77b4" stroke-linejoin="round" stroke-width="1.5"/><path clip-path="url(#a)" d="m69.218182 195.08776h5.021382" stroke="#1f77b4" stroke-linejoin="round" stroke-width="1.5"/><path clip-path="url(#a)" d="m69.218182 192.07881h5.568645" stroke="#1f77b4" stroke-linejoin="round" stroke-width="1.5"/><path clip-path="url(#a)" d="m69.218182 189.06985h7.704482" stroke="#1f77b4" stroke-linejoin="round" stroke-width="1.5"/><path clip-path="url(#a)" d="m69.218182 186.0609h7.820429" stroke="#1f77b4" stroke-linejoin="round" stroke-width="1.5"/><path clip-path="url(#a)" d="m69.218182 183.05194h8.161245" stroke="#1f77b4" stroke-linejoin="round" stroke-width="1.5"/><path clip-path="url(#a)" d="m69.218182 180.04298h8.251588" stroke="#1f77b4" stroke-linejoin="round" stroke-width="1.5"/><path clip-path="url(#a)" d="m69.218182 177.03403h8.306088" stroke="#1f77b4" stroke-linejoin="round" stroke-width="1.5"/><path clip-path="url(#a)" d="m69.218182 174.02507h8.35275" stroke="#1f77b4" stroke-linejoin="round" stroke-width="1.5"/><path clip-path="url(#a)" d="m69.218182 171.01612h8.378108" stroke="#1f77b4" stroke-linejoin="round" stroke-width="1.5"/><path clip-path="url(#a)" d="m69.218182 168.00716h8.511388" stroke="#1f77b4" stroke-linejoin="round" stroke-width="1.5"/><path clip-path="url(#a)" d="m69.218182 164.99821h9.855461" stroke="#1f77b4" stroke-linejoin="round" stroke-width="1.5"/><path clip-path="url(#a)" d="m69.218182 161.98925h11.304556" stroke="#1f77b4" stroke-linejoin="round" stroke-width="1.5"/><path clip-path="url(#a)" d="m69.218182 158.9803h11.645891" stroke="#1f77b4" stroke-linejoin="round" stroke-width="1.5"/><path clip-path="url(#a)" d="m69.218182 155.97134h11.9537" stroke="#1f77b4" stroke-linejoin="round" stroke-width="1.5"/><path clip-path="url(#a)" d="m69.218182 152.96239h12.070051" stroke="#1f77b4" stroke-linejoin="round" stroke-width="1.5"/><path clip-path="url(#a)" d="m69.218182 149.95343h12.800968" stroke="#1f77b4" stroke-linejoin="round" stroke-width="1.5"/><path clip-path="url(#a)" d="m69.218182 146.94448h12.836629" stroke="#1f77b4" stroke-linejoin="round" stroke-width="1.5"/><path clip-path="url(#a)" d="m69.218182 143.93552h13.668467" stroke="#1f77b4" stroke-linejoin="round" stroke-width="1.5"/><path clip-path="url(#a)" d="m69.218182 140.92657h13.894877" stroke="#1f77b4" stroke-linejoin="round" stroke-width="1.5"/><path clip-path="url(#a)" d="m69.218182 137.91761h14.469983" stroke="#1f77b4" stroke-linejoin="round" stroke-width="1.5"/><path clip-path="url(#a)" d="m69.218182 134.90866h15.095347" stroke="#1f77b4" stroke-linejoin="round" stroke-width="1.5"/><path clip-path="url(#a)" d="m69.218182 131.8997h15.940414" stroke="#1f77b4" stroke-linejoin="round" stroke-width="1.5"/><path clip-path="url(#a)" d="m69.218182 128.89075h16.148378" stroke="#1f77b4" stroke-linejoin="round" stroke-width="1.5"/><path clip-path="url(#a)" d="m69.218182 125.88179h18.91725" stroke="#1f77b4" stroke-linejoin="round" stroke-width="1.5"/><path clip-path="url(#a)" d="m69.218182 122.87284h19.98644" stroke="#1f77b4" stroke-linejoin="round" stroke-width="1.5"/><path clip-path="url(#a)" d="m69.218182 119.86388h20.305062" stroke="#1f77b4" stroke-linejoin="round" stroke-width="1.5"/><path clip-path="url(#a)" d="m69.218182 116.85492h22.773083" stroke="#1f77b4" stroke-linejoin="round" stroke-width="1.5"/><path clip-path="url(#a)" d="m69.218182 113.84597h22.817513" stroke="#1f77b4" stroke-linejoin="round" stroke-width="1.5"/><path clip-path="url(#a)" d="m69.218182 110.83701h23.903143" stroke="#1f77b4" stroke-linejoin="round" stroke-width="1.5"/><path clip-path="url(#a)" d="m69.218182 107.82806h24.311335" stroke="#1f77b4" stroke-linejoin="round" stroke-width="1.5"/><path clip-path="url(#a)" d="m69.218182 104.8191h24.39809" stroke="#1f77b4" stroke-linejoin="round" stroke-width="1.5"/><path clip-path="url(#a)" d="m69.218182 101.81015h30.083444" stroke="#1f77b4" stroke-linejoin="round" stroke-width="1.5"/><path clip-path="url(#a)" d="m69.218182 98.801194h31.837458" stroke="#1f77b4" stroke-linejoin="round" stroke-width="1.5"/><path clip-path="url(#a)" d="m69.218182 95.792239h32.811838" stroke="#1f77b4" stroke-linejoin="round" stroke-width="1.5"/><path clip-path="url(#a)" d="m69.218182 92.783284h33.629118" stroke="#1f77b4" stroke-linejoin="round" stroke-width="1.5"/><path clip-path="url(#a)" d="m69.218182 89.774328h33.818688" stroke="#1f77b4" stroke-linejoin="round" stroke-width="1.5"/><path clip-path="url(#a)" d="m69.218182 86.765373h35.196768" stroke="#1f77b4" stroke-linejoin="round" stroke-width="1.5"/><path clip-path="url(#a)" d="m69.218182 83.756418h36.631768" stroke="#1f77b4" stroke-linejoin="round" stroke-width="1.5"/><path clip-path="url(#a)" d="m69.218182 80.747463h37.145558" stroke="#1f77b4" stroke-linejoin="round" stroke-width="1.5"/><path clip-path="url(#a)" d="m69.218182 77.738507h38.582768" stroke="#1f77b4" stroke-linejoin="round" stroke-width="1.5"/><path clip-path="url(#a)" d="m69.218182 74.729552h39.084978" stroke="#1f77b4" stroke-linejoin="round" stroke-width="1.5"/><path clip-path="url(#a)" d="m69.218182 71.720597h45.742218" stroke="#1f77b4" stroke-linejoin="round" stroke-width="1.5"/><path clip-path="url(#a)" d="m69.218182 68.711642h46.362058" stroke="#1f77b4" stroke-linejoin="round" stroke-width="1.5"/><path clip-path="url(#a)" d="m69.218182 65.702687h48.760628" stroke="#1f77b4" stroke-linejoin="round" stroke-width="1.5"/><path clip-path="url(#a)" d="m69.218182 62.693731h50.896028" stroke="#1f77b4" stroke-linejoin="round" stroke-width="1.5"/><path clip-path="url(#a)" d="m69.218182 59.684776h63.147528" stroke="#1f77b4" stroke-linejoin="round" stroke-width="1.5"/><path clip-path="url(#a)" d="m69.218182 56.675821h192.529468" stroke="#1f77b4" stroke-linejoin="round" stroke-width="1.5"/><path clip-path="url(#a)" d="m69.218182 53.666866h192.533558" stroke="#1f77b4" stroke-linejoin="round" stroke-width="1.5"/><path clip-path="url(#a)" d="m69.218182 50.65791h194.649478" stroke="#1f77b4" stroke-linejoin="round" stroke-width="1.5"/><path clip-path="url(#a)" d="m69.218182 47.648955h304.363638" stroke="#1f77b4" stroke-linejoin="round" stroke-width="1.5"/><path d="m54 256.32v-221.76" stroke="#000" stroke-linejoin="miter" stroke-width=".8"/><path d="m388.8 256.32v-221.76" stroke="#000" stroke-linejoin="miter" stroke-width=".8"/><path d="m54 256.32h334.8" stroke="#000" stroke-linejoin="miter" stroke-width=".8"/><path d="m54 34.56h334.8" stroke="#000" stroke-linejoin="miter" stroke-width=".8"/></g></g><g transform="matrix(.096 0 0 -.096 130.989 11.9025)"><path d="m19.671875 34.8125v-26.703125h15.828125q7.953125 0 11.78125 3.296875 3.84375 3.296875 3.84375 10.078125 0 6.84375-3.84375 10.078125-3.828125 3.25-11.78125 3.25zm0 29.984375v-21.96875h14.609375q7.21875 0 10.75 2.703125 3.546875 2.71875 3.546875 8.28125 0 5.515625-3.546875 8.25-3.53125 2.734375-10.75 2.734375zm-9.859375 8.109375h25.203125q11.28125 0 17.375-4.6875 6.109375-4.6875 6.109375-13.328125 0-6.703125-3.125-10.65625-3.125-3.953125-9.1875-4.921875 7.28125-1.5625 11.3125-6.53125 4.03125-4.953125 4.03125-12.375 0-9.765625-6.640625-15.09375-6.640625-5.3125-18.90625-5.3125h-26.171875z" height="100%" width="100%"/><use height="100%" width="100%" x="68.603516" xlink:href="#e"/><use height="100%" width="100%" x="129.88281" xlink:href="#f"/><path d="m48.78125 52.59375v-8.40625q-3.8125 2.109375-7.640625 3.15625-3.828125 1.046875-7.734375 1.046875-8.75 0-13.59375-5.546875-4.828125-5.53125-4.828125-15.546875 0-10.015625 4.828125-15.5625 4.84375-5.53125 13.59375-5.53125 3.90625 0 7.734375 1.046875 3.828125 1.046875 7.640625 3.15625v-8.3125q-3.765625-1.75-7.796875-2.625-4.015625-.890625-8.5625-.890625-12.359375 0-19.640625 7.765625-7.265625 7.765625-7.265625 20.953125 0 13.375 7.34375 21.03125 7.359375 7.671875 20.15625 7.671875 4.140625 0 8.09375-.859375 3.953125-.84375 7.671875-2.546875z" height="100%" transform="translate(168.74609)" width="100%"/><path d="m30.609375 48.390625q-7.21875 0-11.421875-5.640625-4.203125-5.640625-4.203125-15.453125 0-9.8125 4.171875-15.453125 4.1875-5.640625 11.453125-5.640625 7.1875 0 11.375 5.65625 4.203125 5.671875 4.203125 15.4375 0 9.71875-4.203125 15.40625-4.1875 5.6875-11.375 5.6875zm0 7.609375q11.71875 0 18.40625-7.625 6.703125-7.609375 6.703125-21.078125 0-13.421875-6.703125-21.078125-6.6875-7.640625-18.40625-7.640625-11.765625 0-18.4375 7.640625-6.65625 7.65625-6.65625 21.078125 0 13.46875 6.65625 21.078125 6.671875 7.625 18.4375 7.625z" height="100%" transform="translate(223.72656)" width="100%"/><path d="m45.40625 46.390625v29.59375h8.984375v-75.984375h-8.984375v8.203125q-2.828125-4.875-7.15625-7.25-4.3125-2.375-10.375-2.375-9.90625 0-16.140625 7.90625-6.21875 7.921875-6.21875 20.8125 0 12.890625 6.21875 20.796875 6.234375 7.90625 16.140625 7.90625 6.0625 0 10.375-2.375 4.328125-2.359375 7.15625-7.234375zm-30.609375-19.09375q0-9.90625 4.078125-15.546875 4.078125-5.640625 11.203125-5.640625 7.125 0 11.21875 5.640625 4.109375 5.640625 4.109375 15.546875 0 9.90625-4.109375 15.546875-4.09375 5.640625-11.21875 5.640625-7.125 0-11.203125-5.640625-4.078125-5.640625-4.078125-15.546875z" height="100%" transform="translate(284.9082)" width="100%"/><path d="m56.203125 29.59375v-4.390625h-41.3125q.59375-9.28125 5.59375-14.140625 5-4.859375 13.9375-4.859375 5.171875 0 10.03125 1.265625 4.859375 1.265625 9.65625 3.8125v-8.5q-4.84375-2.046875-9.921875-3.125-5.078125-1.078125-10.296875-1.078125-13.09375 0-20.734375 7.609375-7.640625 7.625-7.640625 20.625 0 13.421875 7.25 21.296875 7.25 7.890625 19.5625 7.890625 11.03125 0 17.453125-7.109375 6.421875-7.09375 6.421875-19.296875zm-8.984375 2.640625q-.09375 7.359375-4.125 11.75-4.03125 4.40625-10.671875 4.40625-7.515625 0-12.03125-4.25-4.515625-4.25-5.203125-11.96875z" height="100%" transform="translate(348.38477)" width="100%"/><path d="m19.671875 64.796875v-56.6875h11.921875q15.09375 0 22.09375 6.828125 7 6.84375 7 21.59375 0 14.640625-7 21.453125-7 6.8125-22.09375 6.8125zm-9.859375 8.109375h20.265625q21.1875 0 31.09375-8.8125 9.921875-8.8125 9.921875-27.5625 0-18.859375-9.96875-27.703125-9.953125-8.828125-31.046875-8.828125h-20.265625z" height="100%" transform="translate(441.69531)" width="100%"/><path d="m9.421875 54.6875h8.984375v-54.6875h-8.984375zm0 21.296875h8.984375v-11.390625h-8.984375z" height="100%" transform="translate(518.69727)" width="100%"/><use height="100%" width="100%" x="546.48047" xlink:href="#e"/><path d="m45.40625 27.984375q0 9.765625-4.03125 15.125-4.015625 5.375-11.296875 5.375-7.21875 0-11.25-5.375-4.03125-5.359375-4.03125-15.125 0-9.71875 4.03125-15.09375 4.03125-5.375 11.25-5.375 7.28125 0 11.296875 5.375 4.03125 5.375 4.03125 15.09375zm8.984375-21.203125q0-13.953125-6.203125-20.765625-6.1875-6.8125-18.984375-6.8125-4.734375 0-8.9375.703125-4.203125.703125-8.15625 2.171875v8.734375q3.953125-2.140625 7.8125-3.15625 3.859375-1.03125 7.859375-1.03125 8.84375 0 13.234375 4.609375 4.390625 4.609375 4.390625 13.9375v4.453125q-2.78125-4.84375-7.125-7.234375-4.34375-2.390625-10.40625-2.390625-10.046875 0-16.203125 7.65625-6.15625 7.671875-6.15625 20.328125 0 12.6875 6.15625 20.34375 6.15625 7.671875 16.203125 7.671875 6.0625 0 10.40625-2.390625 4.34375-2.390625 7.125-7.21875v8.296875h8.984375z" height="100%" transform="translate(607.75977)" width="100%"/><use height="100%" width="100%" x="671.23633" xlink:href="#f"/><use height="100%" width="100%" x="712.34961" xlink:href="#e"/><path d="m52 44.1875q3.375 6.0625 8.0625 8.9375 4.6875 2.875 11.03125 2.875 8.546875 0 13.1875-5.984375 4.640625-5.96875 4.640625-17v-33.015625h-9.03125v32.71875q0 7.859375-2.796875 11.65625-2.78125 3.8125-8.484375 3.8125-6.984375 0-11.046875-4.640625-4.046875-4.625-4.046875-12.640625v-30.90625h-9.03125v32.71875q0 7.90625-2.78125 11.6875-2.78125 3.78125-8.59375 3.78125-6.890625 0-10.953125-4.65625-4.046875-4.65625-4.046875-12.625v-30.90625h-9.03125v54.6875h9.03125v-8.5q3.078125 5.03125 7.375 7.421875 4.296875 2.390625 10.203125 2.390625 5.96875 0 10.140625-3.03125 4.171875-3.015625 6.171875-8.78125z" height="100%" transform="translate(773.62891)" width="100%"/></g></g></svg>